<?xml version="1.0" encoding="UTF-8" standalone="no"?>
<!-- Created with Inkscape (http://www.inkscape.org/) -->

<svg
   width="1200"
   height="630"
   viewBox="0 0 1200 630"
   version="1.1"
   id="svg5"
   xml:space="preserve"
   inkscape:version="1.2.1 (9c6d41e410, 2022-07-14)"
   sodipodi:docname="SVG Social Default 1200x630.svg"
   inkscape:export-xdpi="96"
   inkscape:export-ydpi="96"
   xmlns:inkscape="http://www.inkscape.org/namespaces/inkscape"
   xmlns:sodipodi="http://sodipodi.sourceforge.net/DTD/sodipodi-0.dtd"
   xmlns="http://www.w3.org/2000/svg"
   xmlns:svg="http://www.w3.org/2000/svg"><sodipodi:namedview
     id="namedview7"
     pagecolor="#505050"
     bordercolor="#ffffff"
     borderopacity="1"
     inkscape:showpageshadow="0"
     inkscape:pageopacity="0"
     inkscape:pagecheckerboard="1"
     inkscape:deskcolor="#505050"
     inkscape:document-units="px"
     showgrid="false"
     inkscape:zoom="1.1308333"
     inkscape:cx="689.31469"
     inkscape:cy="326.30804"
     inkscape:current-layer="layer1"
     inkscape:window-width="2560"
     inkscape:window-height="1371"
     inkscape:window-x="1080"
     inkscape:window-y="32"
     inkscape:window-maximized="1" /><defs
     id="defs2" /><g
     inkscape:label="Layer 1"
     inkscape:groupmode="layer"
     id="layer1"><g
       id="layer1-5"
       transform="matrix(0.29296875,0,0,0.29166667,0,2.4734584e-6)"><g
         id="g2571"
         transform="matrix(1,0,0,0.92868497,0,67.91433)"><g
           id="g945"
           transform="translate(0,-215.35829)"><rect
             x="0"
             y="142.22871"
             width="4096"
             height="2325.8694"
             fill="#241f31"
             id="rect2"
             style="fill:#2b2f5d;fill-opacity:1;stroke-width:2.14343" /><path
             d="m 4095.9999,2468.0981 c -146.3467,-40.8779 -292.9067,-81.7559 -433.7067,-124.7854 -140.8,-43.0295 -275.84,-88.2104 -408.7466,-147.5911 -133.12,-59.1654 -263.8933,-132.961 -364.16,-230.2076 -100.2667,-97.2466 -169.8133,-218.1594 -301.8667,-299.7003 -132.0533,-81.5408 -326.1866,-123.7096 -382.2933,-247.2041 -56.32,-123.2795 25.6,-327.8846 -30.9333,-471.38788 -56.5334,-143.50326 -251.3067,-225.90468 -337.92,-349.39924 -86.8267,-123.70972 -65.7067,-288.51256 -44.3734,-453.31541 h 2304 z"
             fill="#30223b"
             id="path102"
             style="fill:#3a3370;fill-opacity:1;stroke-width:2.14238" /><path
             d="m 4095.9999,2136.1258 c -125.44,-35.069 -251.0933,-70.138 -371.6267,-106.9282 -120.7466,-37.0053 -236.5866,-75.5167 -350.5066,-126.5067 -113.92,-50.7747 -226.1334,-113.8129 -312.1067,-197.29 -85.9733,-83.262 -145.7066,-186.963 -258.7733,-256.8859 -113.0667,-69.9228 -279.68,-106.0676 -327.68,-211.9201 -48.2133,-105.6374 21.9733,-280.98243 -26.4533,-404.0467 -48.4267,-122.84912 -215.4667,-193.63259 -289.7067,-299.48507 -74.4533,-105.85248 -56.32,-247.20427 -37.9733,-388.55606 h 1974.8266 z"
             fill="#4e254a"
             id="path104"
             style="fill:#5e388c;fill-opacity:1;stroke-width:2.14238" /><path
             d="m 4095.9999,1804.1535 c -104.5333,-29.2601 -209.28,-58.305 -309.76,-89.071 -100.48,-30.7661 -197.12,-63.0382 -292.0533,-105.4222 -94.9334,-42.384 -188.3734,-94.88 -260.0534,-164.3725 -71.4666,-69.4926 -121.3866,-155.7666 -215.6799,-214.0716 -94.2934,-58.305 -232.96,-88.4256 -273.0667,-176.636 -40.1067,-87.99522 18.3467,-234.29539 -21.9733,-336.70552 -40.32,-102.41012 -179.6267,-161.36049 -241.4934,-249.57089 -62.08,-88.2104 -46.72,-206.11113 -31.5733,-323.79672 h 1645.6533 z"
             fill="#70234e"
             id="path106"
             style="fill:#863593;fill-opacity:1;stroke-width:2.14238" /><path
             d="m 4095.9999,1472.1811 c -83.6267,-23.2359 -167.4667,-46.6869 -247.8933,-71.2137 -80.4267,-24.5268 -157.6534,-50.3445 -233.6,-84.3377 -75.9467,-33.7782 -150.6134,-75.947 -208,-131.4551 -57.1734,-55.7231 -97.0667,-124.7854 -172.5867,-171.2572 -75.3067,-46.68698 -186.24,-70.78348 -218.4533,-141.3518 -32,-70.35317 14.72,-187.39331 -17.4933,-269.36444 -32.4267,-81.97113 -143.5734,-129.0884 -193.28,-199.65672 -49.4934,-70.56831 -37.3334,-164.80284 -25.1734,-259.03737 h 1316.48 z"
             fill="#921f48"
             id="path108"
             style="fill:#a82f88;fill-opacity:1;stroke-width:2.14238" /><path
             d="m 4095.9999,1140.424 c -62.72,-17.6421 -125.44,-35.069 -185.8133,-53.5717 -60.3734,-18.5027 -118.1867,-37.8659 -175.36,-63.2533 -56.96,-25.38736 -112.8534,-57.01402 -155.9467,-98.53745 -42.88,-41.73858 -72.7467,-93.58909 -129.28,-128.6581 -56.7467,-34.85386 -139.9467,-52.92624 -164.0533,-105.85248 -23.8934,-52.92624 11.0933,-140.4912 -13.0134,-202.02334 -24.32,-61.53213 -107.7333,-96.81628 -145.0666,-149.74253 -37.12,-52.92624 -27.9467,-123.70971 -18.9867,-194.27803 h 987.52 z"
             fill="#af2438"
             id="path110"
             style="fill:#bf366a;fill-opacity:1;stroke-width:2.14238" /><path
             d="m 4095.9999,808.45171 c -41.8133,-11.83311 -83.6267,-23.45107 -123.9467,-35.71447 -40.1066,-12.26339 -78.72,-25.17223 -116.6933,-42.16887 -37.9733,-16.99663 -75.52,-37.86593 -104.1067,-65.83508 -28.5866,-27.75401 -48.64,-62.17757 -86.1866,-85.62863 -37.76,-23.23591 -93.2267,-35.28416 -109.2267,-70.56833 -16.2133,-35.28415 7.2533,-93.58907 -8.96,-134.68222 -16,-40.87798 -71.68,-64.54419 -96.4267,-99.82835 -24.96,-35.28416 -18.7733,-82.40143 -12.8,-129.51869 h 658.3467 z"
             fill="#c1381d"
             id="path112"
             style="fill:#cd5537;fill-opacity:1;stroke-width:2.14238" /><path
             d="m 4095.9999,476.47939 c -20.9067,-5.80898 -41.8133,-11.61796 -61.8667,-17.85723 -20.2666,-6.23927 -39.4666,-12.69369 -58.4533,-21.08443 -18.9867,-8.39075 -37.76,-18.93298 -52.0533,-32.91755 -14.2934,-13.76943 -24.32,-31.19636 -43.0934,-42.81432 -18.9866,-11.61796 -46.72,-17.64208 -54.6133,-35.28415 -8.1067,-17.64209 3.6267,-46.90212 -4.48,-67.34112 -8.1067,-20.43899 -35.84,-32.2721 -48.2133,-49.91418 -12.3734,-17.64208 -9.3867,-41.30828 -6.4,-64.75934 h 329.1733 z"
             fill="#c64600"
             id="path114"
             style="fill:#d16a00;fill-opacity:1;stroke-width:2.14238" /><path
             d="m 0,144.50704 c 160.42666,-4.94839 321.06666,-9.68163 443.30666,76.37729 122.24,85.84379 206.08,262.69488 354.34666,305.29405 148.26667,42.38403 360.95998,-49.48388 482.34668,9.89678 121.3866,59.38066 151.2533,269.79474 229.9733,409.2102 78.72,139.41544 206.08,207.40204 281.6,315.62114 75.52,108.0039 99.2,256.0253 177.4933,384.6834 78.08,128.6581 210.9867,238.1681 276.0534,372.2048 64.8533,133.8217 61.8666,291.955 58.88,450.3034 H 0 Z"
             fill="#30223b"
             id="path118"
             style="fill:#3a3370;fill-opacity:1;stroke-width:2.14238" /><path
             d="m 0,476.47935 c 137.6,-4.0878 275.2,-8.39075 379.94666,65.40479 104.74667,73.58039 176.64,225.25924 303.78666,261.61914 127.14667,36.3599 309.33333,-42.16888 413.43998,8.60589 104.1067,50.77477 129.7067,231.28333 197.12,350.69013 67.4133,119.4068 176.64,177.9269 241.28,270.4402 64.8533,92.7284 85.12,219.4503 152.1067,329.8209 67.2,110.3705 180.9066,204.1747 236.5866,319.0634 55.68,114.6736 53.12,250.4315 50.56,385.9743 H 0 Z"
             fill="#4e254a"
             id="path120"
             style="fill:#5e388c;fill-opacity:1;stroke-width:2.14238" /><path
             d="m 0,808.45167 c 114.56,-3.44236 229.33333,-6.88471 316.58666,54.43227 87.25333,61.53214 147.2,187.82356 253.22666,218.15936 105.81334,30.3358 257.92,-35.2842 344.53333,7.0999 86.61335,42.384 107.94665,192.772 164.26665,292.1701 56.1067,99.6132 147.2,148.2364 200.96,225.4743 53.9733,77.238 70.8267,182.8752 126.9333,274.7432 55.8934,92.083 150.8267,170.1815 197.12,265.9221 46.2934,95.5254 44.16,208.6929 42.0267,321.6452 H 0 Z"
             fill="#70234e"
             id="path122"
             style="fill:#863593;fill-opacity:1;stroke-width:2.14238" /><path
             d="m 0,1140.424 c 91.733332,-2.797 183.46666,-5.5939 253.22666,43.4597 69.97333,49.2688 117.76,150.1729 202.45333,174.4845 84.90667,24.3117 206.50667,-28.1843 275.84,5.809 69.33333,33.7781 86.4,154.0454 131.41333,233.65 44.8,79.6045 117.76,118.7613 160.85338,180.5086 43.0933,61.7473 56.5333,146.3002 101.3333,219.6654 44.8,73.5804 120.7466,136.1883 157.8666,212.7807 37.12,76.3773 35.2,166.9543 33.4934,257.3162 H 0 Z"
             fill="#921f48"
             id="path124"
             style="fill:#a82f88;fill-opacity:1;stroke-width:2.14238" /><path
             d="m 0,1472.1811 c 68.693332,-1.9363 137.6,-4.0877 189.86666,32.7025 52.48,37.0053 88.32,112.7371 151.89333,131.0247 63.57334,18.0724 154.88,-21.2996 206.72,4.0878 52.05333,25.6025 64.85333,115.7492 98.56,175.5602 33.92,59.5958 88.32,88.8559 120.74666,135.1125 32.42667,46.2567 42.45334,109.7251 76.16,165.018 33.49334,55.0777 90.45334,101.9798 118.18667,159.4242 27.94666,57.4443 26.66666,125.2157 25.38666,192.9871 H 0 Z"
             fill="#af2438"
             id="path126-6"
             style="fill:#bf366a;fill-opacity:1;stroke-width:2.14238" /><path
             d="m 0,1804.1534 c 45.866666,-1.2908 91.733332,-2.7968 126.72,21.9451 34.77333,24.5268 58.88,75.0864 101.12,87.1346 42.45333,12.0483 103.25333,-13.9845 137.81333,2.797 34.77333,16.9966 43.30666,77.2378 65.70666,117.0401 22.61334,39.8023 58.88,59.1656 80.42667,90.1468 21.76,30.766 28.37333,73.15 50.77333,109.9402 22.4,36.7902 60.37333,67.9866 78.93333,106.2828 18.56,38.2962 17.70667,83.4772 16.85334,128.6581 H 0 Z"
             fill="#c1381d"
             id="path128"
             style="fill:#cd5537;fill-opacity:1;stroke-width:2.14238" /><path
             d="m 0,2136.1258 c 22.826666,-0.6454 45.866666,-1.2909 63.359999,10.9725 17.493333,12.2634 29.44,37.4357 50.560001,43.6749 21.12,6.0242 51.62666,-7.0999 68.90666,1.2909 17.28,8.6059 21.54667,38.5114 32.85334,58.5201 11.30666,19.7936 29.44,29.6903 40.32,44.9658 10.66666,15.4906 14.08,36.575 25.38666,55.0777 11.09334,18.2875 30.08,33.9933 39.25333,53.1413 9.38667,19.1482 8.96,41.7386 8.53334,64.3291 H 0 Z"
             fill="#c64600"
             id="path130"
             style="fill:#d16a00;fill-opacity:1;stroke-width:2.14238" /></g></g></g></g></svg>
